<svg width="1201" height="469" viewBox="0 0 1201 469" fill="none" xmlns="http://www.w3.org/2000/svg">
<path d="M113.425 186.004C116.392 178.27 125.066 174.405 132.801 177.372C140.535 180.339 144.4 189.013 141.433 196.748L76.7809 365.29C73.8141 373.025 65.1393 376.889 57.4051 373.923C49.6709 370.956 45.8061 362.281 48.7729 354.547L113.425 186.004Z" fill="white"/>
<path d="M161.024 186.004C163.99 178.27 172.665 174.405 180.4 177.372C188.134 180.339 191.998 189.013 189.032 196.748L110.829 400.617C107.862 408.351 99.1872 412.216 91.453 409.249C83.7188 406.282 79.854 397.607 82.8208 389.873L161.024 186.004Z" fill="white"/>
<path d="M207.575 182.004C210.541 174.27 219.216 170.405 226.951 173.372C234.685 176.339 238.549 185.013 235.583 192.748L149.119 418.153C146.152 425.887 137.477 429.752 129.743 426.785C122.009 423.818 118.144 415.143 121.111 407.409L207.575 182.004Z" fill="white"/>
<path d="M328.248 51.4946C331.215 43.7604 339.89 39.8957 347.624 42.8624C355.358 45.8292 359.223 54.5041 356.256 62.2383L293.38 226.153C290.413 233.887 281.738 237.752 274.004 234.785C266.27 231.818 262.405 223.143 265.372 215.409L328.248 51.4946Z" fill="white"/>
<path fill-rule="evenodd" clip-rule="evenodd" d="M233.5 438C346.442 438 438 346.442 438 233.5C438 188.498 423.464 146.891 398.831 113.118L410.897 81.6628C445.873 122.488 467 175.526 467 233.5C467 362.458 362.458 467 233.5 467C188.76 467 146.958 454.417 111.441 432.596L122.035 404.98C154.098 425.865 192.382 438 233.5 438ZM111.938 397.964C103.34 391.598 95.2584 384.574 87.7681 376.966L76.5707 406.157C76.5472 406.218 76.5229 406.279 76.4979 406.339C84.2741 413.407 92.5292 419.957 101.209 425.935L111.938 397.964ZM365.205 77.0523C373.534 84.0708 381.294 91.7422 388.407 99.9875L399.992 69.7849C392.53 62.1971 384.554 55.1172 376.119 48.6015L365.205 77.0523ZM76.9071 365.033C47.0097 329.476 29 283.591 29 233.5C29 120.558 120.558 29 233.5 29C278.527 29 320.155 43.5521 353.938 68.2099L364.65 40.2835C327.266 14.859 282.118 0 233.5 0C104.542 0 0 104.542 0 233.5C0 296.368 24.8457 353.434 65.2537 395.412L76.9071 365.033Z" fill="white"/>
<path d="M232.652 197.386C227.411 190.971 228.361 181.522 234.775 176.28C241.19 171.039 250.639 171.989 255.881 178.403L341.168 282.767C346.409 289.181 345.459 298.63 339.045 303.872C332.63 309.114 323.181 308.163 317.939 301.749L232.652 197.386Z" fill="white"/>
<path d="M220 198.5C212.82 198.5 207 192.68 207 185.5C207 178.32 212.82 172.5 220 172.5L245 172.5C252.18 172.5 258 178.32 258 185.5C258 192.68 252.18 198.5 245 198.5L220 198.5Z" fill="white"/>
<path d="M330.5 308C321.94 308 315 301.06 315 292.5C315 283.939 321.94 277 330.5 277L345.5 277C354.06 277 361 283.939 361 292.5C361 301.06 354.06 308 345.5 308L330.5 308Z" fill="white"/>
<path d="M206.194 222.706C200.952 216.292 201.903 206.843 208.317 201.601C214.731 196.359 224.18 197.31 229.422 203.724L295.006 283.978C300.248 290.392 299.298 299.841 292.883 305.083C286.469 310.325 277.02 309.374 271.778 302.96L206.194 222.706Z" fill="white"/>
<path d="M191.109 262.733C185.867 256.319 186.817 246.87 193.232 241.628C199.646 236.386 209.095 237.337 214.337 243.751L246.303 282.868C251.545 289.282 250.595 298.731 244.18 303.973C237.766 309.215 228.317 308.264 223.075 301.85L191.109 262.733Z" fill="white"/>
<path d="M366.142 74.6391C369.109 66.9049 377.784 63.0401 385.518 66.0069C393.252 68.9737 397.117 77.6486 394.15 85.3828L325.38 264.662C322.413 272.396 313.738 276.261 306.004 273.294C298.27 270.328 294.405 261.653 297.372 253.919L366.142 74.6391Z" fill="white"/>
<path d="M399.078 112.385C402.045 104.651 410.72 100.786 418.454 103.753C426.188 106.72 430.053 115.394 427.086 123.129L360.112 297.726C357.145 305.46 348.47 309.325 340.736 306.358C333.002 303.391 329.137 294.716 332.104 286.982L399.078 112.385Z" fill="white"/>
<path d="M737.45 104.35V322H714.2C710.7 322 707.75 321.45 705.35 320.35C702.95 319.15 700.6 317.15 698.3 314.35L589.85 176.35C590.15 179.85 590.35 183.3 590.45 186.7C590.65 190.1 590.75 193.25 590.75 196.15V322H551V104.35H574.7C576.6 104.35 578.2 104.45 579.5 104.65C580.9 104.75 582.15 105.1 583.25 105.7C584.35 106.2 585.4 106.9 586.4 107.8C587.4 108.7 588.5 109.9 589.7 111.4L698.9 250C698.5 246.2 698.2 242.55 698 239.05C697.8 235.45 697.7 232.05 697.7 228.85V104.35H737.45Z" fill="white"/>
<path d="M804.331 322H759.031V104.35H804.331V322Z" fill="white"/>
<path d="M870.852 194.2H879.702C887.102 194.2 892.452 191.9 895.752 187.3L950.802 113.65C953.402 110.15 956.252 107.75 959.352 106.45C962.452 105.05 966.252 104.35 970.752 104.35H1009.75L940.452 193.6C935.952 199.4 931.302 203.55 926.502 206.05C930.002 207.45 933.152 209.3 935.952 211.6C938.752 213.8 941.452 216.75 944.052 220.45L1015.15 322H975.102C972.502 322 970.252 321.8 968.352 321.4C966.552 321 964.952 320.45 963.552 319.75C962.152 319.05 960.952 318.2 959.952 317.2C958.952 316.1 958.002 314.85 957.102 313.45L901.152 235.15C899.252 232.45 897.002 230.55 894.402 229.45C891.802 228.25 888.152 227.65 883.452 227.65H870.852V322H825.852V104.35H870.852V194.2Z" fill="white"/>
<path d="M1125.35 239.35L1101.8 172.75C1100.4 169.25 1098.9 165.15 1097.3 160.45C1095.8 155.75 1094.35 150.65 1092.95 145.15C1091.55 150.75 1090.05 155.95 1088.45 160.75C1086.95 165.45 1085.5 169.55 1084.1 173.05L1060.7 239.35H1125.35ZM1200.95 322H1166C1162.1 322 1158.9 321.1 1156.4 319.3C1154 317.4 1152.2 315 1151 312.1L1136.3 270.55H1049.6L1034.9 312.1C1033.9 314.6 1032.15 316.9 1029.65 319C1027.15 321 1024 322 1020.2 322H984.945L1070 104.35H1116.05L1200.95 322Z" fill="white"/>
<path d="M624.968 443V380.216H636.104V443H624.968ZM680.862 443V380.216H693.438L704.574 410.936C705.278 412.92 705.95 414.968 706.59 417.08C707.294 419.128 707.966 421.176 708.606 423.224H708.99C709.694 421.176 710.366 419.128 711.006 417.08C711.646 414.968 712.286 412.92 712.926 410.936L723.774 380.216H736.446V443H726.174V414.296C726.174 412.312 726.238 410.168 726.366 407.864C726.558 405.496 726.75 403.128 726.942 400.76C727.198 398.392 727.422 396.248 727.614 394.328H727.23L722.142 408.92L711.87 437.144H705.246L694.878 408.92L689.886 394.328H689.502C689.694 396.248 689.886 398.392 690.078 400.76C690.334 403.128 690.526 405.496 690.654 407.864C690.846 410.168 690.942 412.312 690.942 414.296V443H680.862ZM805.577 444.152C800.137 444.152 795.337 442.84 791.177 440.216C787.017 437.528 783.753 433.752 781.385 428.888C779.081 423.96 777.929 418.104 777.929 411.32C777.929 404.536 779.081 398.744 781.385 393.944C783.753 389.144 787.017 385.464 791.177 382.904C795.337 380.344 800.137 379.064 805.577 379.064C811.081 379.064 815.913 380.344 820.073 382.904C824.233 385.464 827.465 389.144 829.769 393.944C832.137 398.744 833.321 404.536 833.321 411.32C833.321 418.104 832.137 423.96 829.769 428.888C827.465 433.752 824.233 437.528 820.073 440.216C815.913 442.84 811.081 444.152 805.577 444.152ZM805.577 434.456C810.505 434.456 814.441 432.376 817.385 428.216C820.329 423.992 821.801 418.36 821.801 411.32C821.801 404.28 820.329 398.776 817.385 394.808C814.441 390.776 810.505 388.76 805.577 388.76C800.649 388.76 796.713 390.776 793.769 394.808C790.825 398.776 789.353 404.28 789.353 411.32C789.353 418.36 790.825 423.992 793.769 428.216C796.713 432.376 800.649 434.456 805.577 434.456ZM804.233 376.952L799.337 371.384L814.409 358.424L820.361 365.72L804.233 376.952ZM884.975 443L865.391 380.216H877.199L886.031 411.8C887.055 415.32 887.983 418.712 888.815 421.976C889.647 425.24 890.575 428.664 891.599 432.248H891.983C893.071 428.664 893.999 425.24 894.767 421.976C895.599 418.712 896.495 415.32 897.455 411.8L906.191 380.216H917.615L898.127 443H884.975ZM954.012 443V380.216H991.836V389.624H965.148V405.656H987.708V415.064H965.148V433.592H992.796V443H954.012ZM1034.47 443V380.216H1045.6V443H1034.47ZM1108.7 444.152C1104.47 444.152 1100.38 443.352 1096.41 441.752C1092.51 440.152 1089.05 437.88 1086.04 434.936L1092.57 427.352C1094.81 429.464 1097.37 431.192 1100.25 432.536C1103.13 433.816 1106.01 434.456 1108.89 434.456C1112.47 434.456 1115.19 433.72 1117.05 432.248C1118.91 430.776 1119.83 428.824 1119.83 426.392C1119.83 423.768 1118.91 421.88 1117.05 420.728C1115.26 419.576 1112.95 418.392 1110.14 417.176L1101.5 413.432C1099.45 412.536 1097.43 411.384 1095.45 409.976C1093.53 408.568 1091.93 406.776 1090.65 404.6C1089.43 402.424 1088.83 399.8 1088.83 396.728C1088.83 393.4 1089.72 390.424 1091.51 387.8C1093.37 385.112 1095.87 383 1099 381.464C1102.2 379.864 1105.85 379.064 1109.95 379.064C1113.59 379.064 1117.11 379.8 1120.51 381.272C1123.9 382.68 1126.81 384.6 1129.24 387.032L1123.58 394.136C1121.59 392.472 1119.48 391.16 1117.24 390.2C1115.07 389.24 1112.63 388.76 1109.95 388.76C1107 388.76 1104.6 389.432 1102.75 390.776C1100.95 392.056 1100.06 393.848 1100.06 396.152C1100.06 397.752 1100.51 399.096 1101.4 400.184C1102.36 401.208 1103.61 402.104 1105.15 402.872C1106.68 403.576 1108.31 404.28 1110.04 404.984L1118.59 408.536C1122.3 410.136 1125.34 412.248 1127.71 414.872C1130.07 417.432 1131.26 420.984 1131.26 425.528C1131.26 428.92 1130.36 432.024 1128.57 434.84C1126.78 437.656 1124.19 439.928 1120.79 441.656C1117.47 443.32 1113.43 444.152 1108.7 444.152Z" fill="white"/>
</svg>
